<svg xmlns="http://www.w3.org/2000/svg" width="256" height="256" data-name="Layer 1" viewBox="0 0 256 256"><g data-name="Photo Surface"><rect width="240" height="232" x="8" y="12" fill="#00005b" data-name="Outline no shadow" rx="42"/></g><path fill="#99f" d="M60 182.88V74a1 1 0 011.12-1.12C69.23 72.67 78.8 72 91.28 72c14.72 0 25.52 3.07 32.4 9.68A32.6 32.6 0 01134 106.16q0 18.09-12.8 26.88T89 141.84L80 142v40.72A1.13 1.13 0 0178.72 184H61.28C60.43 184 60 183.63 60 182.88zM80 87.62V127s4.56-.18 10-.18q10.73 0 17.36-4.72T114 106.64q0-9.44-5.84-14.56T91.28 87c-1.81 0-3.6 0-5.36.08s-3.2.08-4.32.08S79.88 87.12 80 87.62zM149 104h17a1.84 1.84 0 011.83 1.33A23.4 23.4 0 01170 114c6.42-8.3 14.32-12 24.84-12a1 1 0 011.16 1.16v17.66c0 .89-.44 1.27-1.33 1.16-9.63-.55-17.27.71-22.8 6.24A5.24 5.24 0 00170 132v50.84c0 .77-.44 1.16-1.33 1.16H151.49c-1 0-1.49-.44-1.49-1.33V126c0-13.42-1-15.33-2-20.84C147.89 104.39 148.22 104 149 104z"/></svg>