<svg xmlns="http://www.w3.org/2000/svg" data-name="Layer 1" viewBox="0 0 128 128"><path fill="#e21a20" d="M64 9.09a12 12 0 0 1 6 1.61l37.16 21.45a12 12 0 0 1 6 10.39v42.91a12 12 0 0 1-6 10.39L70 117.3a12 12 0 0 1-12 0L20.84 95.85a12 12 0 0 1-6-10.39V42.55a12 12 0 0 1 6-10.39L58 10.7a12 12 0 0 1 6-1.61m0-8a20 20 0 0 0-10 2.68L16.84 25.23a20 20 0 0 0-10 17.32v42.9a20 20 0 0 0 10 17.32L54 124.23a20 20 0 0 0 20 0l37.16-21.45a20 20 0 0 0 10-17.32V42.55a20 20 0 0 0-10-17.32L74 3.77a20 20 0 0 0-10-2.68Z"/><path fill="#e21a20" fill-rule="evenodd" d="M98.62 53.92c-.49-6.75-1.72-13.72-10.35-14.23a426.5 426.5 0 0 0-48.55 0c-8.63.5-9.86 7.48-10.35 14.23a135 135 0 0 0 0 20.16c.49 6.75 1.72 13.72 10.35 14.23a426.5 426.5 0 0 0 48.55 0c8.63-.5 9.86-7.48 10.35-14.23a135 135 0 0 0 0-20.16ZM57 73V53l19 10Z"/></svg>